<svg xmlns="http://www.w3.org/2000/svg" viewBox="0 0 1200 675" role="img" aria-labelledby="title desc">
  <title id="title">Portada abstracta para Notas de Taller</title>
  <desc id="desc">Ilustracion con tarjetas, lineas editoriales y gradientes calidos.</desc>
  <defs>
    <linearGradient id="bg" x1="0%" y1="0%" x2="100%" y2="100%">
      <stop offset="0%" stop-color="#fbf6ed" />
      <stop offset="100%" stop-color="#efe6d6" />
    </linearGradient>
    <linearGradient id="accent" x1="0%" y1="0%" x2="100%" y2="100%">
      <stop offset="0%" stop-color="#0e7c86" />
      <stop offset="100%" stop-color="#d77f52" />
    </linearGradient>
  </defs>
  <rect width="1200" height="675" fill="url(#bg)" rx="40" />
  <circle cx="180" cy="110" r="120" fill="#d77f52" opacity="0.16" />
  <circle cx="1020" cy="140" r="140" fill="#0e7c86" opacity="0.12" />
  <rect x="110" y="120" width="430" height="420" rx="32" fill="#fffaf2" stroke="#d7cfbf" />
  <rect x="170" y="185" width="220" height="26" rx="13" fill="#0e7c86" opacity="0.14" />
  <rect x="170" y="238" width="310" height="34" rx="17" fill="#21323a" opacity="0.9" />
  <rect x="170" y="294" width="240" height="18" rx="9" fill="#5f6f76" opacity="0.35" />
  <rect x="170" y="332" width="290" height="18" rx="9" fill="#5f6f76" opacity="0.25" />
  <rect x="170" y="370" width="250" height="18" rx="9" fill="#5f6f76" opacity="0.2" />
  <rect x="170" y="442" width="140" height="42" rx="21" fill="url(#accent)" />
  <rect x="610" y="160" width="470" height="150" rx="30" fill="#fffaf2" stroke="#d7cfbf" />
  <rect x="650" y="210" width="180" height="24" rx="12" fill="#d77f52" opacity="0.18" />
  <rect x="650" y="252" width="290" height="20" rx="10" fill="#21323a" opacity="0.84" />
  <rect x="610" y="350" width="340" height="180" rx="28" fill="#ffffff" opacity="0.82" />
  <rect x="985" y="350" width="95" height="180" rx="28" fill="#0e7c86" opacity="0.88" />
  <path d="M985 414c40-32 61-49 95-54v170h-95Z" fill="#d77f52" opacity="0.88" />
</svg>
